<?xml version="1.0" standalone="no"?>
<!DOCTYPE svg PUBLIC "-//W3C//DTD SVG 1.1//EN" "http://www.w3.org/Graphics/SVG/1.1/DTD/svg11.dtd" >
<svg xmlns="http://www.w3.org/2000/svg" xmlns:xlink="http://www.w3.org/1999/xlink" version="1.1" viewBox="0 -200 1000 1000">
  <g transform="matrix(1 0 0 -1 0 800)">
   <path fill="currentColor"
d="M300 400q0 -82 59.5 -141t140.5 -59t140.5 59t59.5 141t-59.5 141t-140.5 59t-140.5 -59t-59.5 -141zM100 400q0 96 52.5 187t146 150t201.5 59t201.5 -59.5t146 -151t52.5 -187.5t-52.5 -187.5t-146 -151.5q-91.9672 -59.0164 -197.963 -59.0164h-3.53709
q-108 1.0082 -201.5 61.0164q-93.5 60 -146 151.5t-52.5 187.5z" />
  </g>

</svg>
